<svg width="1918" height="109" viewBox="0 0 1918 109" fill="none" xmlns="http://www.w3.org/2000/svg">
<path d="M0.75 2C24.8734 8.56037 76.8173 20.3583 100.931 27.0374C129.835 35.0435 159.561 34.7045 188.729 43.9088C208.671 50.2014 229.378 53.4349 250.006 55.0804C328.601 61.3501 407.894 58.9562 486.879 58.9562C520.109 58.9562 553.338 58.9562 586.568 58.9562C621.403 58.9562 653.532 50.7485 687.628 50.7485C729.348 50.7485 770.357 50.5367 811.781 46.1887C840.726 43.1505 862.902 34.3331 892.72 34.3331C917.795 34.3331 942.869 34.3331 967.943 34.3331C1011.69 34.3331 1055.44 34.3331 1099.18 34.3331C1124.29 34.3331 1148.7 35.1768 1173.72 37.525C1198.81 39.8792 1216 47.714 1239.11 56.6763C1260.58 65.0009 1286.82 61.7187 1307.25 71.4958C1330 82.3846 1348.9 87.6832 1374.24 87.6832C1419.45 87.6832 1463.85 95.8909 1508.45 95.8909C1522.1 95.8909 1539.23 95.587 1551.9 100.907C1579.29 112.406 1623.34 104.099 1652.96 104.099C1679.17 104.099 1705.39 104.099 1731.61 104.099C1754.56 104.099 1774.43 95.8909 1796.77 95.8909C1810.51 95.8909 1819.16 85.5286 1833.36 83.3513C1842.3 81.979 1850.22 63.2727 1859.42 58.9562C1862.31 57.5985 1936.72 20.4858 1909.95 13.8139" stroke="#959595" stroke-width="3" stroke-linecap="round"/>
</svg>
