<svg width="391" height="42" viewBox="0 0 391 42" fill="none" xmlns="http://www.w3.org/2000/svg">
<path d="M0.75 33.4182C4.38787 33.4182 8.02574 33.4182 11.6636 33.4182C21.934 33.4182 30.2142 30.5077 40.0102 28.1592C51.2126 25.4736 63.4974 26.2862 74.9481 26.2862C100.352 26.2862 125.257 32.3083 149.867 38.461C164.467 42.1114 181.106 42.1866 194.998 36.2998C201.401 33.5863 208.166 31.6441 214.7 29.2398C218.854 27.7115 222.797 25.778 226.946 24.2691C229.581 23.3109 232.275 21.0254 234.798 19.6585C239.048 17.3562 243.181 15.9062 247.621 14.3275C252.869 12.4615 258.049 12.0222 263.613 12.0222C268.144 12.0222 271.711 11.2578 276.112 10.4373C283.894 8.98618 292.268 8.78036 300.172 8.78036C314.735 8.78036 329.299 8.78036 343.862 8.78036C353.724 8.78036 363.558 9.42873 373.47 9.42873C377.132 9.42873 380.061 6.51751 382.979 4.9262C385.428 3.59032 387.459 2.52733 389.75 1" stroke="#959595" stroke-linecap="round"/>
</svg>
