<svg width="1914" height="130" viewBox="0 0 1914 130" fill="none" xmlns="http://www.w3.org/2000/svg">
<path d="M0.75 99.4615C30.8446 99.4615 55.7235 84.6468 84.5232 78.6752C106.899 74.0356 122.067 56.4265 141.467 45.8547C159.416 36.0739 178.428 36.4672 197.863 33C228.444 27.5445 249.847 15.7692 281.637 15.7692C329.446 15.7692 377.287 15.1938 425.091 15.7692C542.31 17.1801 654.652 43.2742 769.492 57.6154C848.314 67.4586 924.943 84.7258 1003.84 98.3675C1043.11 105.158 1080.37 114.231 1120.46 114.231C1183.8 114.231 1247.13 114.231 1310.46 114.231C1354.82 114.231 1398.27 129 1442.96 129C1491.89 129 1539.29 106.932 1587.51 100.556C1617.98 96.527 1650.02 84.2237 1678.95 73.7521C1721.11 58.4931 1762.84 44.5181 1806.25 33.2735C1845.87 23.0126 1871.6 1 1912.75 1" stroke="#959595" stroke-width="2" stroke-linecap="round"/>
</svg>
