<svg width="1921" height="246" viewBox="0 0 1921 246" fill="none" xmlns="http://www.w3.org/2000/svg">
<path d="M0.75 1.56616C96.9884 41.4461 192.924 84.2658 291.305 118.985C308.36 125.003 313.401 125.892 328.539 125.892C347.104 125.892 365.668 125.892 384.232 125.892C407.927 125.892 423.573 120.23 446.289 115.845C520.763 101.471 597.41 99.4233 671.923 83.1941C718.694 73.0072 758.473 69.3801 805.903 69.3801C879.31 69.3801 952.718 69.3801 1026.13 69.3801C1097.73 69.3801 1169.34 69.3801 1240.94 69.3801C1280.38 69.3801 1320.26 67.573 1359.64 69.3801C1389.94 70.77 1411.21 91.9848 1441.43 91.9848C1501.01 91.9848 1544.76 106.231 1596.1 134.368C1612.3 143.248 1637.59 145.006 1656.25 152.892C1681.1 163.399 1704.75 173.496 1729.76 184.601C1759 197.581 1789.84 200.204 1819.19 215.996C1845.42 230.114 1890.87 244.566 1919.75 244.566" stroke="#959595" stroke-width="2" stroke-linecap="round"/>
</svg>
